<?xml version="1.0" encoding="utf-8"?>
<!-- Svg Vector Icons : http://www.onlinewebfonts.com/icon -->
<!DOCTYPE svg PUBLIC "-//W3C//DTD SVG 1.1//EN" "http://www.w3.org/Graphics/SVG/1.1/DTD/svg11.dtd">
<svg version="1.1" xmlns="http://www.w3.org/2000/svg" xmlns:xlink="http://www.w3.org/1999/xlink" x="0px" y="0px" viewBox="0 0 1000 1000" enable-background="new 0 0 1000 1000" xml:space="preserve">
<metadata> Svg Vector Icons : http://www.onlinewebfonts.com/icon </metadata>
<g><g transform="translate(0.000000,511.000000) scale(0.100000,-0.100000)"><path d="M4495.2,4988.7C2547.5,4771.1,895.4,3405.4,315.7,1531C-172.4-47.8,178.2-1736.6,1262.1-3031.2C2258.8-4222.7,3837.6-4898.7,5338.5-4775c1207.6,100.8,2254.8,584.3,3109.5,1436.7C9492.8-2295.7,10017.5-868.1,9877.8,559.4c-245.2,2516-2396.8,4468.3-4901.3,4449.9C4806.9,5009.4,4589.2,5000.2,4495.2,4988.7z M5613.4,4521.3c1365.7-194.8,2509.1-946.4,3210.3-2108.1c774.5-1283.2,829.5-2969.7,144.4-4330.8c-1010.5-2011.9-3418.8-2933-5561.3-2131C1676.8-3400.1,554-1764.1,554,105.7c0,1258,467.4,2369.3,1356.5,3226.3c669.1,646.2,1500.9,1049.5,2456.4,1189.2C4653.3,4562.5,5322.5,4562.5,5613.4,4521.3z"/><path d="M6151.9,2997.5c-98.5-22.9-238.3-98.5-380.4-203.9c-167.3-123.7-201.6-139.8-428.5-185.6c-107.7-22.9-231.4-57.3-270.4-77.9c-89.4-45.8-178.7-48.1-194.8-2.3c-66.5,167.3-1074.7,270.4-1510,153.5c-575.1-155.8-992.2-566-1386.3-1361.1c-178.7-362-323.1-586.6-423.9-664.5c-114.6-87.1-291-171.9-444.5-210.8C952.7,403.6,874.8,328,874.8,213.4c0-82.5,29.8-126,307.1-440c192.5-222.2,442.2-552.2,538.5-712.6c61.9-105.4,71-142.1,71-291c0-199.4-9.2-187.9,364.3-405.6c277.3-160.4,401-208.5,522.5-197.1c82.5,6.9,89.4,2.3,135.2-96.2c27.5-57.3,96.2-146.6,153.5-201.6c89.4-80.2,107.7-110,107.7-178.7c0-91.7,41.2-183.3,114.6-249.8c43.5-39,96.2-48.1,407.9-61.9c284.1-11.5,430.8-29.8,692-89.4c295.6-66.5,371.2-75.6,687.4-75.6c430.8-2.3,527,20.6,962.4,224.6c169.6,82.5,375.8,165,456,185.6c187.9,48.1,265.8,32.1,756.2-162.7c527-208.5,692-242.9,882.2-190.2c119.1,32.1,201.6,126,297.9,327.7c71,146.6,201.6,538.5,265.8,788.2c22.9,87.1,39,105.4,130.6,144.4c160.4,68.7,272.7,169.6,341.4,309.3c52.7,110,59.6,144.4,48.1,270.4c-43.6,474.3-357.5,609.5-868.5,375.8c-183.3-82.5-233.7-75.6-350.6,45.8c-77.9,77.9-82.5,91.7-68.7,176.4c114.6,689.7,0,1395.5-346,2119.6c-144.4,300.2-566,944.1-696.6,1063.2c-48.1,43.5-128.3,89.4-176.4,103.1C6511.7,3022.7,6261.9,3025,6151.9,2997.5z M6594.2,2410.9c350.6-476.6,540.8-824.9,685.1-1253.4c132.9-401,181-868.4,123.8-1230.5c-59.6-380.4-57.3-394.1,36.7-538.5c146.7-220,378.1-375.8,627.9-423.9c142.1-27.5,213.1-4.6,323.1,103.1c135.2,130.6,247.5,130.6,279.6-2.3c16-66.5-52.7-98.5-203.9-96.3c-130.6,4.6-233.7-55-192.5-105.4c13.7-16,13.7-39,2.3-59.6c-13.7-18.3-22.9-61.9-22.9-96.3c0-41.2-9.2-59.6-29.8-50.4c-20.6,6.9-39-32.1-57.3-126c-34.4-160.4-171.9-602.7-236-749.3c-41.3-100.8-48.1-105.4-121.5-94c-41.2,6.9-203.9,71.1-359.7,142.1c-490.4,224.6-588.9,252.1-891.4,249.8c-302.5,0-483.5-50.4-870.7-231.4c-497.2-236-643.9-247.5-1306.1-114.6c-220,45.8-481.2,89.4-579.7,98.6c-160.4,13.7-176.4,20.6-176.4,66.4c0,57.3-68.7,126-183.3,183.3c-43.5,22.9-98.5,55-121.4,75.6c-36.7,34.4-36.7,39,22.9,100.8c183.3,192.5-52.7,483.5-396.4,485.8c-116.9,2.3-153.5-9.2-233.7-64.2l-96.2-64.2l-112.3,71c-77.9,50.4-114.6,91.7-123.7,137.5c-6.9,36.7-43.5,93.9-80.2,130.6c-34.4,36.7-82.5,112.3-105.4,169.6c-55,137.5-247.5,423.9-483.5,721.8C1603.5-20.3,1516.4,94.3,1516.4,98.9s55,39,121.4,75.6c171.9,96.2,364.3,279.6,481.2,458.3c57.3,84.8,181,311.6,279.6,504.1c332.3,659.9,669.1,1008.2,1077,1115.9c162.7,41.2,511,45.8,797.4,6.9c181-22.9,217.7-34.4,288.7-98.5c153.5-135.2,362.1-162.7,593.5-77.9c71,27.5,176.4,57.3,233.7,71c449.1,96.2,515.6,121.4,724.1,291c75.6,61.9,162.7,116.9,194.7,123.7C6449.8,2594.2,6461.3,2589.6,6594.2,2410.9z M8711.4-1301.2c0-36.7-16-89.4-36.7-114.6c-32.1-41.2-34.4-39-22.9,48.1c6.9,50.4,13.7,116.9,13.7,148.9c0,45.8,4.6,50.4,22.9,22.9C8700-1214.1,8711.4-1262.2,8711.4-1301.2z M8574-1333.3c45.8-34.4,50.4-50.4,29.8-71c-22.9-22.9-39-16-73.3,27.5C8450.2-1282.9,8475.4-1257.7,8574-1333.3z"/></g></g>
</svg>